<svg width="48" height="48" viewBox="0 0 48 48" fill="none" xmlns="http://www.w3.org/2000/svg">
<path fill-rule="evenodd" clip-rule="evenodd" d="M25.7645 6.68408C26.1563 6.68408 26.5321 6.83899 26.8092 7.11473C27.0863 7.39047 27.2419 7.76445 27.2419 8.1544V40.5013C27.2419 40.8913 27.0863 41.2653 26.8092 41.541C26.5321 41.8167 26.1563 41.9716 25.7645 41.9716C25.3726 41.9716 24.9969 41.8167 24.7198 41.541C24.4427 41.2653 24.2871 40.8913 24.2871 40.5013V8.1544C24.2871 7.76445 24.4427 7.39047 24.7198 7.11473C24.9969 6.83899 25.3726 6.68408 25.7645 6.68408ZM19.8548 12.5653C20.2466 12.5653 20.6224 12.7202 20.8995 12.996C21.1765 13.2717 21.3322 13.6457 21.3322 14.0357V34.6201C21.3322 35.01 21.1765 35.384 20.8995 35.6597C20.6224 35.9355 20.2466 36.0904 19.8548 36.0904C19.4629 36.0904 19.0871 35.9355 18.8101 35.6597C18.533 35.384 18.3773 35.01 18.3773 34.6201V14.0357C18.3773 13.6457 18.533 13.2717 18.8101 12.996C19.0871 12.7202 19.4629 12.5653 19.8548 12.5653ZM31.6742 12.5653C32.0661 12.5653 32.4418 12.7202 32.7189 12.996C32.996 13.2717 33.1516 13.6457 33.1516 14.0357V34.6201C33.1516 35.01 32.996 35.384 32.7189 35.6597C32.4418 35.9355 32.0661 36.0904 31.6742 36.0904C31.2824 36.0904 30.9066 35.9355 30.6295 35.6597C30.3524 35.384 30.1968 35.01 30.1968 34.6201V14.0357C30.1968 13.6457 30.3524 13.2717 30.6295 12.996C30.9066 12.7202 31.2824 12.5653 31.6742 12.5653ZM13.945 16.9763C14.3369 16.9763 14.7127 17.1312 14.9897 17.4069C15.2668 17.6827 15.4225 18.0566 15.4225 18.4466V30.2091C15.4225 30.5991 15.2668 30.9731 14.9897 31.2488C14.7127 31.5245 14.3369 31.6794 13.945 31.6794C13.5532 31.6794 13.1774 31.5245 12.9003 31.2488C12.6233 30.9731 12.4676 30.5991 12.4676 30.2091V18.4466C12.4676 18.0566 12.6233 17.6827 12.9003 17.4069C13.1774 17.1312 13.5532 16.9763 13.945 16.9763ZM37.5839 16.9763C37.9758 16.9763 38.3516 17.1312 38.6287 17.4069C38.9057 17.6827 39.0614 18.0566 39.0614 18.4466V30.2091C39.0614 30.5991 38.9057 30.9731 38.6287 31.2488C38.3516 31.5245 37.9758 31.6794 37.5839 31.6794C37.1921 31.6794 36.8163 31.5245 36.5392 31.2488C36.2622 30.9731 36.1065 30.5991 36.1065 30.2091V18.4466C36.1065 18.0566 36.2622 17.6827 36.5392 17.4069C36.8163 17.1312 37.1921 16.9763 37.5839 16.9763ZM8.03529 19.9169C8.42713 19.9169 8.80292 20.0718 9.08 20.3476C9.35707 20.6233 9.51273 20.9973 9.51273 21.3872V27.2685C9.51273 27.6584 9.35707 28.0324 9.08 28.3082C8.80292 28.5839 8.42713 28.7388 8.03529 28.7388C7.64345 28.7388 7.26766 28.5839 6.99059 28.3082C6.71352 28.0324 6.55786 27.6584 6.55786 27.2685V21.3872C6.55786 20.9973 6.71352 20.6233 6.99059 20.3476C7.26766 20.0718 7.64345 19.9169 8.03529 19.9169ZM43.4937 19.9169C43.8855 19.9169 44.2613 20.0718 44.5384 20.3476C44.8155 20.6233 44.9711 20.9973 44.9711 21.3872V27.2685C44.9711 27.6584 44.8155 28.0324 44.5384 28.3082C44.2613 28.5839 43.8855 28.7388 43.4937 28.7388C43.1018 28.7388 42.726 28.5839 42.449 28.3082C42.1719 28.0324 42.0162 27.6584 42.0162 27.2685V21.3872C42.0162 20.9973 42.1719 20.6233 42.449 20.3476C42.726 20.0718 43.1018 19.9169 43.4937 19.9169Z" fill="white"/>
</svg>
