<svg width="62" height="58" viewBox="0 0 62 58" fill="none" xmlns="http://www.w3.org/2000/svg">
<g clip-path="url(#clip0_1_143)">
<path fill-rule="evenodd" clip-rule="evenodd" d="M0 38.0625C0 38.5432 0.204129 39.0042 0.567481 39.3441C0.930832 39.684 1.42364 39.875 1.9375 39.875H17.4375C17.9514 39.875 18.4442 39.684 18.8075 39.3441C19.1709 39.0042 19.375 38.5432 19.375 38.0625C19.375 37.5818 19.1709 37.1208 18.8075 36.7809C18.4442 36.441 17.9514 36.25 17.4375 36.25H11.625V5.4375C11.625 4.9568 11.4209 4.49578 11.0575 4.15587C10.6942 3.81596 10.2014 3.625 9.6875 3.625C9.17364 3.625 8.68083 3.81596 8.31748 4.15587C7.95413 4.49578 7.75 4.9568 7.75 5.4375V36.25H1.9375C1.42364 36.25 0.930832 36.441 0.567481 36.7809C0.204129 37.1208 0 37.5818 0 38.0625H0ZM9.6875 43.5C9.17364 43.5 8.68083 43.691 8.31748 44.0309C7.95413 44.3708 7.75 44.8318 7.75 45.3125V52.5625C7.75 53.0432 7.95413 53.5042 8.31748 53.8441C8.68083 54.184 9.17364 54.375 9.6875 54.375C10.2014 54.375 10.6942 54.184 11.0575 53.8441C11.4209 53.5042 11.625 53.0432 11.625 52.5625V45.3125C11.625 44.8318 11.4209 44.3708 11.0575 44.0309C10.6942 43.691 10.2014 43.5 9.6875 43.5ZM21.3125 19.9375C21.3125 20.4182 21.5166 20.8792 21.88 21.2191C22.2433 21.559 22.7361 21.75 23.25 21.75H29.0625V52.5625C29.0625 53.0432 29.2666 53.5042 29.63 53.8441C29.9933 54.184 30.4861 54.375 31 54.375C31.5139 54.375 32.0067 54.184 32.37 53.8441C32.7334 53.5042 32.9375 53.0432 32.9375 52.5625V21.75H38.75C39.2639 21.75 39.7567 21.559 40.12 21.2191C40.4834 20.8792 40.6875 20.4182 40.6875 19.9375C40.6875 19.4568 40.4834 18.9958 40.12 18.6559C39.7567 18.316 39.2639 18.125 38.75 18.125H23.25C22.7361 18.125 22.2433 18.316 21.88 18.6559C21.5166 18.9958 21.3125 19.4568 21.3125 19.9375ZM31 3.625C30.4861 3.625 29.9933 3.81596 29.63 4.15587C29.2666 4.49578 29.0625 4.9568 29.0625 5.4375V12.6875C29.0625 13.1682 29.2666 13.6292 29.63 13.9691C29.9933 14.309 30.4861 14.5 31 14.5C31.5139 14.5 32.0067 14.309 32.37 13.9691C32.7334 13.6292 32.9375 13.1682 32.9375 12.6875V5.4375C32.9375 4.9568 32.7334 4.49578 32.37 4.15587C32.0067 3.81596 31.5139 3.625 31 3.625ZM42.625 38.0625C42.625 38.5432 42.8291 39.0042 43.1925 39.3441C43.5558 39.684 44.0486 39.875 44.5625 39.875H60.0625C60.5764 39.875 61.0692 39.684 61.4325 39.3441C61.7959 39.0042 62 38.5432 62 38.0625C62 37.5818 61.7959 37.1208 61.4325 36.7809C61.0692 36.441 60.5764 36.25 60.0625 36.25H54.25V5.4375C54.25 4.9568 54.0459 4.49578 53.6825 4.15587C53.3192 3.81596 52.8264 3.625 52.3125 3.625C51.7986 3.625 51.3058 3.81596 50.9425 4.15587C50.5791 4.49578 50.375 4.9568 50.375 5.4375V36.25H44.5625C44.0486 36.25 43.5558 36.441 43.1925 36.7809C42.8291 37.1208 42.625 37.5818 42.625 38.0625ZM52.3125 43.5C51.7986 43.5 51.3058 43.691 50.9425 44.0309C50.5791 44.3708 50.375 44.8318 50.375 45.3125V52.5625C50.375 53.0432 50.5791 53.5042 50.9425 53.8441C51.3058 54.184 51.7986 54.375 52.3125 54.375C52.8264 54.375 53.3192 54.184 53.6825 53.8441C54.0459 53.5042 54.25 53.0432 54.25 52.5625V45.3125C54.25 44.8318 54.0459 44.3708 53.6825 44.0309C53.3192 43.691 52.8264 43.5 52.3125 43.5Z" fill="white"/>
</g>
<defs>
<clipPath id="clip0_1_143">
<rect width="62" height="58" fill="white"/>
</clipPath>
</defs>
</svg>
