<svg width="47" height="49" viewBox="0 0 47 49" fill="none" xmlns="http://www.w3.org/2000/svg">
<path d="M2.93066 8.34576C2.93066 7.1759 3.39087 6.05396 4.21004 5.22675C5.02921 4.39954 6.14024 3.93481 7.29873 3.93481H16.0348C17.1933 3.93481 18.3044 4.39954 19.1235 5.22675C19.9427 6.05396 20.4029 7.1759 20.4029 8.34576V17.1676C20.4029 18.3375 19.9427 19.4594 19.1235 20.2867C18.3044 21.1139 17.1933 21.5786 16.0348 21.5786H7.29873C6.14024 21.5786 5.02921 21.1139 4.21004 20.2867C3.39087 19.4594 2.93066 18.3375 2.93066 17.1676V8.34576ZM7.29873 6.87544C6.91256 6.87544 6.54222 7.03035 6.26916 7.30609C5.99611 7.58183 5.84271 7.95581 5.84271 8.34576V17.1676C5.84271 17.5576 5.99611 17.9316 6.26916 18.2073C6.54222 18.4831 6.91256 18.638 7.29873 18.638H16.0348C16.421 18.638 16.7914 18.4831 17.0644 18.2073C17.3375 17.9316 17.4909 17.5576 17.4909 17.1676V8.34576C17.4909 7.95581 17.3375 7.58183 17.0644 7.30609C16.7914 7.03035 16.421 6.87544 16.0348 6.87544H7.29873ZM26.227 8.34576C26.227 7.1759 26.6872 6.05396 27.5064 5.22675C28.3255 4.39954 29.4366 3.93481 30.5951 3.93481H39.3312C40.4897 3.93481 41.6007 4.39954 42.4199 5.22675C43.239 6.05396 43.6992 7.1759 43.6992 8.34576V17.1676C43.6992 18.3375 43.239 19.4594 42.4199 20.2867C41.6007 21.1139 40.4897 21.5786 39.3312 21.5786H30.5951C29.4366 21.5786 28.3255 21.1139 27.5064 20.2867C26.6872 19.4594 26.227 18.3375 26.227 17.1676V8.34576ZM30.5951 6.87544C30.2089 6.87544 29.8385 7.03035 29.5655 7.30609C29.2924 7.58183 29.139 7.95581 29.139 8.34576V17.1676C29.139 17.5576 29.2924 17.9316 29.5655 18.2073C29.8385 18.4831 30.2089 18.638 30.5951 18.638H39.3312C39.7173 18.638 40.0877 18.4831 40.3607 18.2073C40.6338 17.9316 40.7872 17.5576 40.7872 17.1676V8.34576C40.7872 7.95581 40.6338 7.58183 40.3607 7.30609C40.0877 7.03035 39.7173 6.87544 39.3312 6.87544H30.5951ZM2.93066 31.8708C2.93066 30.7009 3.39087 29.579 4.21004 28.7518C5.02921 27.9246 6.14024 27.4599 7.29873 27.4599H16.0348C17.1933 27.4599 18.3044 27.9246 19.1235 28.7518C19.9427 29.579 20.4029 30.7009 20.4029 31.8708V40.6927C20.4029 41.8625 19.9427 42.9845 19.1235 43.8117C18.3044 44.6389 17.1933 45.1036 16.0348 45.1036H7.29873C6.14024 45.1036 5.02921 44.6389 4.21004 43.8117C3.39087 42.9845 2.93066 41.8625 2.93066 40.6927V31.8708ZM7.29873 30.4005C6.91256 30.4005 6.54222 30.5554 6.26916 30.8311C5.99611 31.1069 5.84271 31.4808 5.84271 31.8708V40.6927C5.84271 41.0826 5.99611 41.4566 6.26916 41.7324C6.54222 42.0081 6.91256 42.163 7.29873 42.163H16.0348C16.421 42.163 16.7914 42.0081 17.0644 41.7324C17.3375 41.4566 17.4909 41.0826 17.4909 40.6927V31.8708C17.4909 31.4808 17.3375 31.1069 17.0644 30.8311C16.7914 30.5554 16.421 30.4005 16.0348 30.4005H7.29873ZM26.227 31.8708C26.227 30.7009 26.6872 29.579 27.5064 28.7518C28.3255 27.9246 29.4366 27.4599 30.5951 27.4599H39.3312C40.4897 27.4599 41.6007 27.9246 42.4199 28.7518C43.239 29.579 43.6992 30.7009 43.6992 31.8708V40.6927C43.6992 41.8625 43.239 42.9845 42.4199 43.8117C41.6007 44.6389 40.4897 45.1036 39.3312 45.1036H30.5951C29.4366 45.1036 28.3255 44.6389 27.5064 43.8117C26.6872 42.9845 26.227 41.8625 26.227 40.6927V31.8708ZM30.5951 30.4005C30.2089 30.4005 29.8385 30.5554 29.5655 30.8311C29.2924 31.1069 29.139 31.4808 29.139 31.8708V40.6927C29.139 41.0826 29.2924 41.4566 29.5655 41.7324C29.8385 42.0081 30.2089 42.163 30.5951 42.163H39.3312C39.7173 42.163 40.0877 42.0081 40.3607 41.7324C40.6338 41.4566 40.7872 41.0826 40.7872 40.6927V31.8708C40.7872 31.4808 40.6338 31.1069 40.3607 30.8311C40.0877 30.5554 39.7173 30.4005 39.3312 30.4005H30.5951Z" fill="white"/>
</svg>
