<svg width="48" height="47" viewBox="0 0 48 47" fill="none" xmlns="http://www.w3.org/2000/svg">
<path fill-rule="evenodd" clip-rule="evenodd" d="M6.48877 39.4424V20.6053H9.40081V39.4424C9.40081 39.8267 9.55421 40.1952 9.82727 40.467C10.1003 40.7387 10.4707 40.8914 10.8568 40.8914H37.0652C37.4514 40.8914 37.8217 40.7387 38.0948 40.467C38.3678 40.1952 38.5212 39.8267 38.5212 39.4424V20.6053H41.4333V39.4424C41.4333 40.5953 40.973 41.701 40.1539 42.5162C39.3347 43.3314 38.2237 43.7894 37.0652 43.7894H10.8568C9.69835 43.7894 8.58732 43.3314 7.76815 42.5162C6.94897 41.701 6.48877 40.5953 6.48877 39.4424ZM38.5212 7.56424V17.7073L32.6971 11.9113V7.56424C32.6971 7.17994 32.8505 6.81138 33.1236 6.53964C33.3966 6.2679 33.767 6.11523 34.1532 6.11523H37.0652C37.4514 6.11523 37.8217 6.2679 38.0948 6.53964C38.3678 6.81138 38.5212 7.17994 38.5212 7.56424Z" fill="white"/>
<path fill-rule="evenodd" clip-rule="evenodd" d="M21.9022 4.66637C22.4483 4.12308 23.1889 3.81787 23.961 3.81787C24.7332 3.81787 25.4738 4.12308 26.0199 4.66637L45.3762 23.9266C45.6496 24.1986 45.8032 24.5677 45.8032 24.9524C45.8032 25.3372 45.6496 25.7063 45.3762 25.9783C45.1028 26.2504 44.732 26.4033 44.3453 26.4033C43.9587 26.4033 43.5879 26.2504 43.3145 25.9783L23.961 6.71526L4.60762 25.9783C4.33422 26.2504 3.9634 26.4033 3.57676 26.4033C3.19011 26.4033 2.8193 26.2504 2.54589 25.9783C2.27249 25.7063 2.1189 25.3372 2.1189 24.9524C2.1189 24.5677 2.27249 24.1986 2.54589 23.9266L21.9022 4.66637Z" fill="white"/>
</svg>
