<svg width="48" height="48" viewBox="0 0 48 48" fill="none" xmlns="http://www.w3.org/2000/svg">
<path d="M18.696 8.95858C17.3623 6.96777 15.9966 5.28867 14.7648 4.12712C14.1536 3.52183 13.4568 3.01146 12.6972 2.6127C12.0653 2.30687 11.0665 2.00987 10.1288 2.55388C9.0601 3.18024 8.88538 4.40648 8.87664 5.18869C8.86791 6.08264 9.06301 7.14127 9.38042 8.25871C9.95118 10.2789 10.9995 12.752 12.3944 15.3221L2.85454 24.9556C2.04791 25.7702 2.0712 26.8847 2.21972 27.6551C2.37988 28.4873 2.76427 29.3989 3.26805 30.3105C4.28144 32.1543 5.94713 34.3127 8.00303 36.3917C10.0618 38.4707 12.1993 40.1498 14.0251 41.1732C14.9279 41.6819 15.8306 42.0701 16.6547 42.2318C17.4177 42.3788 18.5184 42.4053 19.328 41.5907L35.6791 25.0791C36.0227 25.8349 35.947 26.5847 35.8247 27.8404C35.7373 28.699 35.6266 29.7959 35.6121 31.2985V31.6602H35.6208C35.6819 32.395 36.014 33.0798 36.5515 33.5789C37.0889 34.078 37.7925 34.3551 38.5227 34.3551C39.2528 34.3551 39.9564 34.078 40.4939 33.5789C41.0313 33.0798 41.3635 32.395 41.4245 31.6602H41.4333V31.4926C41.436 31.3778 41.4321 31.2629 41.4216 31.1486C41.2614 27.4728 39.3832 23.0971 36.0052 20.874C35.8241 20.4374 35.619 20.0113 35.3908 19.5978C34.3745 17.7569 32.7117 15.5985 30.6529 13.5195C28.5941 11.4405 26.4566 9.75843 24.6308 8.73509C23.728 8.2293 22.8253 7.84114 22.0012 7.67646C21.2383 7.52943 20.1375 7.5059 19.328 8.32046L18.696 8.95564V8.95858ZM12.7788 6.27378C13.8883 7.32064 15.2365 8.98504 16.5965 11.0729L14.5464 13.146C13.434 11.0082 12.6244 9.02327 12.1789 7.44709C11.9837 6.80266 11.8558 6.13937 11.7974 5.46805C12.0624 5.64743 12.3915 5.90914 12.7788 6.27378ZM13.9261 17.9334C15.4986 20.4388 17.1497 22.5413 18.6058 23.9117C18.7457 24.0434 18.91 24.1459 19.0892 24.2135C19.2684 24.2811 19.4591 24.3123 19.6503 24.3055C19.8414 24.2987 20.0294 24.2539 20.2034 24.1737C20.3775 24.0935 20.5342 23.9795 20.6646 23.8382C20.795 23.6968 20.8965 23.5309 20.9635 23.35C21.0304 23.169 21.0613 22.9765 21.0546 22.7834C21.0478 22.5904 21.0035 22.4005 20.9241 22.2248C20.8447 22.0491 20.7317 21.8908 20.5918 21.7591C19.2726 20.5182 17.6302 18.4186 16.0373 15.7985L19.2057 12.5991C19.3629 12.952 19.5405 13.3136 19.7386 13.6724C20.7549 15.5162 22.4176 17.6746 24.4764 19.7536C26.5323 21.8327 28.6698 23.5118 30.4985 24.5351C30.8538 24.7351 31.2091 24.9174 31.5614 25.0732L17.406 39.3706C17.3395 39.3648 17.2734 39.355 17.208 39.3412C16.809 39.2618 16.2121 39.0353 15.4375 38.6001C13.9116 37.7415 11.9838 36.2476 10.0618 34.3068C8.1399 32.366 6.66058 30.4252 5.81026 28.8784C5.38219 28.0991 5.15505 27.4963 5.07934 27.0934C5.06568 27.0274 5.05596 26.9607 5.05022 26.8935L13.9261 17.9334ZM22.2837 12.2433C21.9823 11.7252 21.7465 11.171 21.5819 10.5936C21.975 10.6906 22.5254 10.917 23.2184 11.3023C24.7444 12.1609 26.6721 13.6548 28.5941 15.5956C29.9045 16.9189 31.0111 18.2451 31.8497 19.4478C30.8075 19.3757 29.7605 19.4659 28.7455 19.7154C27.9774 19.0695 27.2389 18.3885 26.5323 17.6746C24.6104 15.7338 23.134 13.7871 22.2866 12.2433H22.2837Z" fill="white"/>
</svg>
