<svg width="47" height="49" viewBox="0 0 47 49" fill="none" xmlns="http://www.w3.org/2000/svg">
<g clip-path="url(#clip0_46_89)">
<path d="M3.30096 0.975038L0.388916 3.91567L6.79541 12.9757C7.06511 13.3573 7.42123 13.6682 7.83407 13.8825C8.24691 14.0968 8.70451 14.2084 9.16872 14.2079H9.37256C9.75544 14.2076 10.1346 14.2835 10.4884 14.4314C10.8422 14.5792 11.1636 14.796 11.4343 15.0695L19.224 22.9357L11.6032 30.7401C10.2997 30.3526 8.92481 30.2772 7.58747 30.5198C6.25014 30.7625 4.98718 31.3164 3.8988 32.1378C2.81041 32.9592 1.92653 34.0254 1.31728 35.2518C0.708036 36.4782 0.390175 37.8311 0.388916 39.2032C0.390662 40.4675 0.661494 41.7167 1.18306 42.866C1.70463 44.0154 2.46475 45.0381 3.41192 45.8649C4.35909 46.6917 5.47119 47.3033 6.67285 47.6582C7.87452 48.013 9.13769 48.1029 10.3768 47.9218C11.6159 47.7406 12.8019 47.2927 13.8546 46.6082C14.9072 45.9237 15.8019 45.0188 16.478 43.9547C17.154 42.8906 17.5957 41.6921 17.7731 40.4406C17.9504 39.189 17.8593 37.9136 17.5059 36.7008L25.2344 29.0051L28.0533 31.8517L27.1651 34.5394C26.9945 35.0574 26.97 35.6133 27.0945 36.1446C27.2189 36.6759 27.4874 37.1617 27.8698 37.5477L37.6427 47.4164C38.1887 47.9677 38.9293 48.2774 39.7015 48.2774C40.4736 48.2774 41.2142 47.9677 41.7603 47.4164L46.3788 42.7526C46.9247 42.2011 47.2314 41.4533 47.2314 40.6735C47.2314 39.8938 46.9247 39.146 46.3788 38.5945L36.606 28.7258C36.2238 28.3396 35.7427 28.0684 35.2165 27.9428C34.6904 27.8171 34.14 27.8418 33.6269 28.0141L30.9653 28.911L28.1698 26.088L35.9741 18.3159C37.2687 18.6649 38.6254 18.709 39.9396 18.4448C41.2538 18.1805 42.4904 17.6151 43.5539 16.792C44.6175 15.9688 45.4797 14.9101 46.0739 13.6973C46.6682 12.4845 46.9787 11.1501 46.9816 9.79693C46.9816 9.0059 46.8796 8.23839 46.6845 7.51206L40.4528 13.8079L35.3334 12.7376L34.2734 7.57087L40.5081 1.27498C39.025 0.872296 37.4629 0.871544 35.9794 1.2728C34.4959 1.67406 33.1434 2.46315 32.0582 3.56053C30.973 4.6579 30.1934 6.02479 29.798 7.52339C29.4027 9.022 29.4056 10.5994 29.8064 12.0965L22.1186 19.9715L14.3463 12.1288C13.8002 11.5775 13.4933 10.8297 13.4931 10.0498V9.84104C13.4931 9.37277 13.3824 8.91126 13.1702 8.49492C12.958 8.07857 12.6504 7.71943 12.273 7.44736L3.30096 0.975038ZM31.3905 32.281C31.5258 32.1441 31.6864 32.0354 31.8633 31.9613C32.0402 31.8872 32.2298 31.849 32.4214 31.849C32.6129 31.849 32.8025 31.8872 32.9794 31.9613C33.1563 32.0354 33.317 32.1441 33.4522 32.281L42.1883 41.1029C42.3237 41.2396 42.4311 41.4019 42.5044 41.5805C42.5776 41.7591 42.6153 41.9505 42.6153 42.1439C42.6153 42.3372 42.5776 42.5286 42.5044 42.7072C42.4311 42.8858 42.3237 43.0481 42.1883 43.1848C42.053 43.3215 41.8923 43.43 41.7154 43.504C41.5385 43.5779 41.3489 43.616 41.1575 43.616C40.966 43.616 40.7765 43.5779 40.5996 43.504C40.4227 43.43 40.262 43.3215 40.1266 43.1848L31.3905 34.3629C31.2549 34.2264 31.1473 34.0641 31.0739 33.8855C31.0005 33.7069 30.9627 33.5154 30.9627 33.322C30.9627 33.1286 31.0005 32.9371 31.0739 32.7584C31.1473 32.5798 31.2549 32.4176 31.3905 32.281ZM9.12504 33.322L10.4966 34.0336L12.0371 34.1101L12.8728 35.4186L14.1687 36.2626L14.2444 37.8182L14.9491 39.2032L14.2444 40.5883L14.1687 42.1439L12.8728 42.9878L12.0371 44.2964L10.4966 44.3729L9.12504 45.0845L7.75347 44.3729L6.213 44.2964L5.37724 42.9878L4.08138 42.1439L4.00567 40.5883L3.30096 39.2032L4.00567 37.8182L4.08138 36.2626L5.37724 35.4186L6.213 34.1101L7.75347 34.0336L9.12504 33.322Z" fill="white"/>
</g>
<defs>
<clipPath id="clip0_46_89">
<rect width="46.5927" height="47.0501" fill="white" transform="translate(0.388916 0.975098)"/>
</clipPath>
</defs>
</svg>
